<svg width="15" height="15" fill="none" xmlns="http://www.w3.org/2000/svg"><path fill-rule="evenodd" clip-rule="evenodd" d="M2.098 2.1a.333.333 0 0 1 .235-.098h7.334a1 1 0 1 0 0-2H2.333A2.333 2.333 0 0 0 0 2.335v9.333a2.333 2.333 0 0 0 2.333 2.334h9.334A2.333 2.333 0 0 0 14 11.668V7.002a1 1 0 1 0-2 0v4.666a.333.333 0 0 1-.333.334H2.333A.333.333 0 0 1 2 11.668V2.335c0-.088.035-.173.098-.236Zm12.276.275A1 1 0 0 0 12.96.961L7 6.921 5.707 5.628a1 1 0 1 0-1.414 1.414l2 2a1 1 0 0 0 1.414 0l6.667-6.667Z" fill="#fff"/></svg>