<svg width="22" height="22" fill="none" xmlns="http://www.w3.org/2000/svg"><path fill-rule="evenodd" clip-rule="evenodd" d="M11 2.833a8.167 8.167 0 1 0 0 16.333 8.167 8.167 0 0 0 0-16.333ZM.833 10.999C.833 5.384 5.385.833 11 .833s10.167 4.551 10.167 10.166S16.615 21.166 11 21.166.833 16.614.833 10.999Zm10.478-3.966c-1.215-.212-2.312.45-2.704 1.533a1 1 0 1 1-1.88-.681c.724-2 2.762-3.2 4.928-2.822.984.172 1.918.572 2.61 1.312.706.753 1.068 1.76 1.068 2.96 0 1.656-1.261 2.75-2.171 3.338a9.125 9.125 0 0 1-1.894.926l-.038.013-.012.004-.004.001h-.002c-.001.001-.001.001-.31-.95l.309.951a1 1 0 0 1-.618-1.902h.001l.298.918-.297-.919.02-.007.088-.031a7.132 7.132 0 0 0 1.371-.682c.806-.522 1.26-1.094 1.26-1.66 0-.781-.227-1.271-.528-1.593-.314-.336-.805-.588-1.495-.709ZM11 15a1 1 0 0 0 0 2h.008a1 1 0 1 0 0-2H11Z" fill="#fff"/></svg>