<svg width="15" height="16" fill="none" xmlns="http://www.w3.org/2000/svg"><path fill-rule="evenodd" clip-rule="evenodd" d="M4 2.138C4 1.177 4.76.334 5.775.334h2.45C9.24.334 10 1.177 10 2.138a1.74 1.74 0 0 1-.6 1.333c.47.193.91.44 1.316.734l.599-.597-.234-.235a1 1 0 0 1 1.417-1.41l.939.942.938.943a1 1 0 0 1-1.417 1.41l-.232-.233-.596.595a6.333 6.333 0 1 1-7.533-2.147A1.75 1.75 0 0 1 4 2.138ZM2.667 9.334a4.333 4.333 0 1 1 8.666 0 4.333 4.333 0 0 1-8.666 0ZM7 7.668a1.667 1.667 0 0 1 1.188 2.835 1 1 0 1 0 1.426 1.403A3.667 3.667 0 0 0 7 5.668v2Z" fill="#fff"/></svg>