<svg width="23" height="14" viewBox="0 0 23 14" fill="none" xmlns="http://www.w3.org/2000/svg">
<path fill-rule="evenodd" clip-rule="evenodd" d="M7.084 1.55295C7.084 0.747285 7.74913 0.0489502 8.642 0.0489502H12.088C12.4958 0.0489502 13.019 0.165396 13.3767 0.644405C13.6778 1.04774 13.714 1.52959 13.714 1.85495V5.02347C14.2672 4.31419 14.7556 3.49181 15.1321 2.78016C15.3596 2.35026 15.5398 1.97295 15.6627 1.70432C15.7241 1.57021 15.7709 1.46373 15.8019 1.39196C15.8173 1.3561 15.8289 1.32895 15.8362 1.3114L15.8442 1.29242L15.8458 1.28855L15.8458 1.28854L15.8459 1.28832L15.8459 1.28817L15.846 1.28805L15.8493 1.27988L15.853 1.2713C15.9648 1.01272 16.1533 0.692235 16.4874 0.439492C16.8345 0.176871 17.257 0.0489502 17.724 0.0489502H19.917C20.3744 0.0489502 20.9899 0.163426 21.3683 0.704544C21.7197 1.20718 21.6436 1.7663 21.5475 2.10571C21.4376 2.57396 21.1593 3.14487 20.8793 3.65982C20.5738 4.22142 20.1998 4.83349 19.8425 5.39291C19.4838 5.95442 19.1349 6.47365 18.8762 6.85188C18.7467 7.04126 18.6393 7.19592 18.5641 7.30363C18.5457 7.32987 18.5293 7.35334 18.5149 7.37385C18.5411 7.40257 18.5724 7.43579 18.6094 7.47394C18.7095 7.57726 18.8306 7.69588 18.9734 7.83584L18.9792 7.84153L18.9844 7.8466C19.2587 8.11534 19.6059 8.45556 19.8938 8.79394C20.3684 9.32773 20.8022 9.83975 21.1472 10.3068C21.4806 10.7581 21.7898 11.2439 21.9403 11.7139L21.9444 11.7265L21.9481 11.7393C22.0887 12.222 22.1096 12.8569 21.6683 13.369C21.2579 13.8452 20.6677 13.95 20.229 13.95H18.037C17.6798 13.95 17.3467 13.875 17.0286 13.7083C16.7322 13.5531 16.4925 13.3403 16.2896 13.1369C16.1271 12.974 15.949 12.7758 15.7637 12.5697C15.7222 12.5235 15.6804 12.477 15.6383 12.4303C15.3999 12.1663 15.1207 11.8622 14.7696 11.5107C14.2907 11.05 13.9485 10.7758 13.713 10.613V12.0979C13.713 12.4544 13.66 13.1211 13.0102 13.5572C12.5176 13.8879 11.8447 13.951 11.148 13.951C8.42751 13.951 5.59806 12.3188 3.64376 9.51628C2.24272 7.55214 1.34152 5.81505 0.787349 4.47696C0.510283 3.80795 0.318171 3.23434 0.193761 2.77791C0.0771573 2.35012 0 1.95417 0 1.66895C0 1.40409 0.0466132 0.934024 0.419314 0.545599C0.795417 0.15363 1.30404 0.0499506 1.752 0.0499506H3.944C4.37671 0.0499506 4.84818 0.149034 5.24311 0.512788C5.58735 0.829861 5.75726 1.25035 5.86952 1.57639L5.86977 1.57711C6.38185 3.068 7.06881 4.46047 7.70471 5.46513C7.79053 5.60071 7.87415 5.72721 7.955 5.84439V3.71996C7.92302 3.20641 7.7852 2.99275 7.68334 2.85416C7.64793 2.80598 7.61216 2.76169 7.56254 2.70024L7.56022 2.69737L7.55702 2.6934C7.51266 2.63848 7.44688 2.55703 7.38619 2.46926C7.25084 2.27352 7.084 1.96779 7.084 1.55295ZM7.9376 7.22389C7.93757 7.22384 7.93786 7.22239 7.93856 7.21965C7.93798 7.22256 7.93764 7.22393 7.9376 7.22389ZM8.77931 6.8005C8.78586 6.80373 8.78924 6.80583 8.78929 6.80608C8.78934 6.80633 8.78607 6.80471 8.77931 6.8005ZM16.8138 6.31579L16.814 6.31546L16.8152 6.31377L16.8204 6.30642L16.8417 6.27624C16.8606 6.24944 16.8887 6.20954 16.9246 6.15807C16.9966 6.05509 17.1001 5.90594 17.2255 5.72274C17.4764 5.35581 17.813 4.85486 18.157 4.31624C18.5024 3.77554 18.8486 3.20754 19.1223 2.70424C19.264 2.44374 19.3728 2.22443 19.4513 2.04895H17.724C17.7131 2.04895 17.7037 2.04926 17.6957 2.04972C17.6943 2.05266 17.6928 2.05582 17.6913 2.05919L17.68 2.08643C17.6702 2.10958 17.6562 2.14257 17.6381 2.18449C17.602 2.26831 17.5493 2.38802 17.4814 2.53636C17.3459 2.83264 17.1487 3.24526 16.8999 3.71549C16.4087 4.64396 15.6903 5.84701 14.8207 6.81735L14.8034 6.83662L14.7852 6.85498C14.3302 7.31259 13.8128 7.82495 13.055 7.82495C12.0526 7.82495 11.714 6.84143 11.714 6.19795V2.04895H9.53712C9.747 2.43416 9.9154 2.93626 9.95352 3.6366L9.955 3.66375V3.69095V6.91895C9.955 7.26283 9.93695 7.71492 9.73147 8.08625C9.60293 8.31853 9.40566 8.51583 9.14103 8.63524C8.90443 8.74201 8.68173 8.75495 8.548 8.75495C8.16967 8.75495 7.86269 8.59163 7.67317 8.46689C7.4652 8.33 7.27113 8.15389 7.09576 7.97014C6.743 7.6005 6.37399 7.10227 6.01479 6.53477C5.29273 5.39399 4.53924 3.86006 3.97832 2.22706C3.95178 2.15 3.92942 2.09262 3.91088 2.04995H2.07149C2.08619 2.1113 2.10339 2.17866 2.12336 2.25196C2.2232 2.61824 2.38672 3.11182 2.63515 3.71169C3.13156 4.91032 3.95989 6.5161 5.27501 8.3591L5.28157 8.36829L5.28152 8.36833C6.95111 10.7649 9.22202 11.951 11.148 11.951C11.3996 11.951 11.5823 11.9394 11.713 11.9229V10.132C11.713 9.9492 11.7219 9.75105 11.759 9.56001C11.7962 9.36788 11.8735 9.1204 12.0557 8.89402C12.4595 8.39264 13.0471 8.37995 13.287 8.37995C14.0353 8.37995 14.8458 8.80742 16.1637 10.0767L16.1705 10.0832L16.1771 10.0898C16.5658 10.4785 16.8726 10.8129 17.1229 11.0902C17.1745 11.1474 17.2226 11.2008 17.2677 11.251C17.4497 11.4534 17.5832 11.6018 17.7056 11.7245C17.8544 11.8736 17.9256 11.9204 17.9566 11.9367C17.9573 11.937 17.958 11.9374 17.9587 11.9378C17.9677 11.9427 17.981 11.95 18.037 11.95H19.8483C19.7714 11.824 19.6699 11.6729 19.5385 11.4951C19.2457 11.0987 18.8562 10.6367 18.3918 10.1146L18.3839 10.1057L18.3762 10.0966C18.1555 9.83617 17.8707 9.55536 17.5795 9.27012C17.5618 9.2527 17.5435 9.23487 17.5249 9.21669C17.2907 8.98764 16.9988 8.70217 16.8287 8.47067C16.6103 8.18616 16.3828 7.79025 16.4238 7.28463C16.4564 6.88137 16.6653 6.54918 16.7617 6.39586C16.7681 6.38556 16.7741 6.37607 16.7795 6.36742L16.7958 6.34107L16.8138 6.31583L16.8138 6.31579ZM2.00044 1.65641C2.00051 1.6565 2.00046 1.65859 2.00008 1.66244C2.00018 1.65826 2.00037 1.65633 2.00044 1.65641ZM1.67056 2.05441C1.66774 2.05509 1.66622 2.05533 1.66617 2.05528C1.66611 2.05524 1.66752 2.0549 1.67056 2.05441ZM12.1002 2.04932C12.1002 2.04933 12.0995 2.04929 12.0982 2.04917ZM13.7168 6.24679C13.7168 6.24681 13.7166 6.24588 13.7163 6.24391ZM11.7048 1.70793C11.7048 1.70793 11.7048 1.70809 11.7049 1.70839C11.7049 1.70836 11.7049 1.70833 11.7049 1.7083C11.7048 1.70805 11.7048 1.70794 11.7048 1.70793Z" fill="white"/>
</svg>
