<svg width="18" height="5" viewBox="0 0 18 5" fill="none" xmlns="http://www.w3.org/2000/svg">
<path fill-rule="evenodd" clip-rule="evenodd" d="M2 0.00149918C0.89543 0.00149918 0 0.89693 0 2.0015C0 3.10607 0.89543 4.0015 2 4.0015C3.10457 4.0015 4 3.10607 4 2.0015C4 0.89693 3.10457 0.00149918 2 0.00149918ZM7 2.0015C7 0.89693 7.89543 0.00149918 9 0.00149918C10.1046 0.00149918 11 0.89693 11 2.0015C11 3.10607 10.1046 4.0015 9 4.0015C7.89543 4.0015 7 3.10607 7 2.0015ZM14 2.0015C14 0.89693 14.8954 0.00149918 16 0.00149918C17.1046 0.00149918 18 0.89693 18 2.0015C18 3.10607 17.1046 4.0015 16 4.0015C14.8954 4.0015 14 3.10607 14 2.0015Z" fill="white"/>
</svg>
