<svg width="14" height="15" viewBox="0 0 14 15" fill="none" xmlns="http://www.w3.org/2000/svg">
<path fill-rule="evenodd" clip-rule="evenodd" d="M10.7071 3.04045C10.7848 2.96277 10.8902 2.91913 11 2.91913C11.0544 2.91913 11.1083 2.92984 11.1585 2.95066C11.2088 2.97147 11.2545 3.00199 11.2929 3.04045C11.3314 3.07891 11.3619 3.12457 11.3827 3.17483C11.4035 3.22508 11.4142 3.27895 11.4142 3.33334C11.4142 3.38774 11.4035 3.4416 11.3827 3.49185C11.3619 3.54211 11.3314 3.58777 11.2929 3.62624L3.15544 11.7637L2.37439 11.959L2.56965 11.1779L10.7071 3.04045ZM11 0.919128C10.3597 0.919128 9.74567 1.17348 9.29291 1.62624L0.959581 9.95957C0.831422 10.0877 0.740504 10.2483 0.696545 10.4241L0.0298787 13.0908C-0.055315 13.4316 0.0445341 13.7921 0.292914 14.0404C0.541295 14.2888 0.901782 14.3887 1.24256 14.3035L3.90922 13.6368C4.08506 13.5929 4.24564 13.5019 4.37379 13.3738L12.7071 5.04045C12.9313 4.81627 13.1091 4.55013 13.2305 4.25722C13.3518 3.96432 13.4142 3.65038 13.4142 3.33334C13.4142 3.0163 13.3518 2.70237 13.2305 2.40946C13.1091 2.11656 12.9313 1.85042 12.7071 1.62624C12.4829 1.40205 12.2168 1.22423 11.9239 1.1029C11.631 0.981574 11.3171 0.919128 11 0.919128ZM7.00002 12.3333C6.44774 12.3333 6.00002 12.7811 6.00002 13.3333C6.00002 13.8856 6.44774 14.3333 7.00002 14.3333H13C13.5523 14.3333 14 13.8856 14 13.3333C14 12.7811 13.5523 12.3333 13 12.3333H7.00002Z" fill="#7F8FA4"/>
</svg>
