<svg width="78" height="78" fill="none" xmlns="http://www.w3.org/2000/svg"><path fill-rule="evenodd" clip-rule="evenodd" d="M39 4.33c-19.146 0-34.667 15.52-34.667 34.667 0 19.146 15.521 34.666 34.667 34.666s34.667-15.52 34.667-34.666C73.667 19.85 58.146 4.33 39 4.33ZM.333 38.997C.333 17.642 17.645.33 39 .33s38.667 17.312 38.667 38.667S60.355 77.663 39 77.663.333 60.352.333 38.997ZM39 20.333a2 2 0 0 1 2 2v20a2 2 0 1 1-4 0v-20a2 2 0 0 1 2-2Zm0 33.334a2 2 0 0 0 0 4h.033a2 2 0 0 0 0-4H39Z" fill="#FFB300"/></svg>