<svg width="20" height="22" fill="none" xmlns="http://www.w3.org/2000/svg"><path fill-rule="evenodd" clip-rule="evenodd" d="M15 1a1 1 0 1 0-2 0v.001H7V1a1 1 0 0 0-2 0v.001H3a3 3 0 0 0-3 3v15a3 3 0 0 0 3 3h14a3 3 0 0 0 3-3v-15a3 3 0 0 0-3-3h-2V1ZM6 4a1 1 0 0 1-1-.999H3a1 1 0 0 0-1 1v2h16v-2a1 1 0 0 0-1-1h-2a1 1 0 0 1-2 0H7A1 1 0 0 1 6 4Zm12 4.001H2v11a1 1 0 0 0 1 1h14a1 1 0 0 0 1-1v-11ZM4 15a1 1 0 0 1 1-1h3a1 1 0 0 1 1 1v2a1 1 0 0 1-1 1H5a1 1 0 0 1-1-1v-2Zm7-5a1 1 0 0 0-1 1v2a1 1 0 0 0 1 1h4a1 1 0 0 0 1-1v-2a1 1 0 0 0-1-1h-4Z" fill="#354052"/></svg>