<svg width="15" height="15" viewBox="0 0 15 15" fill="none" xmlns="http://www.w3.org/2000/svg">
<path fill-rule="evenodd" clip-rule="evenodd" d="M2.09763 2.09934C2.16014 2.03683 2.24493 2.00171 2.33333 2.00171H9.66667C10.219 2.00171 10.6667 1.55399 10.6667 1.00171C10.6667 0.449424 10.219 0.00170898 9.66667 0.00170898H2.33333C1.7145 0.00170898 1.121 0.247541 0.683417 0.685126C0.245833 1.12271 0 1.7162 0 2.33504V11.6684C0 12.2872 0.245833 12.8807 0.683417 13.3183C1.121 13.7559 1.71449 14.0017 2.33333 14.0017H11.6667C12.2855 14.0017 12.879 13.7559 13.3166 13.3183C13.7542 12.8807 14 12.2872 14 11.6684V7.00171C14 6.44942 13.5523 6.00171 13 6.00171C12.4477 6.00171 12 6.44942 12 7.00171V11.6684C12 11.7568 11.9649 11.8416 11.9024 11.9041C11.8399 11.9666 11.7551 12.0017 11.6667 12.0017H2.33333C2.24493 12.0017 2.16014 11.9666 2.09763 11.9041C2.03512 11.8416 2 11.7568 2 11.6684V2.33504C2 2.24664 2.03512 2.16185 2.09763 2.09934ZM14.3738 2.37548C14.7643 1.98496 14.7643 1.35179 14.3738 0.961269C13.9832 0.570744 13.3501 0.570744 12.9596 0.961269L7 6.92083L5.70711 5.62794C5.31658 5.23741 4.68342 5.23741 4.29289 5.62794C3.90237 6.01846 3.90237 6.65162 4.29289 7.04215L6.29289 9.04215C6.68342 9.43267 7.31658 9.43267 7.70711 9.04215L14.3738 2.37548Z" fill="white"/>
</svg>
