<svg width="14" height="14" viewBox="0 0 14 14" fill="none" xmlns="http://www.w3.org/2000/svg">
<path fill-rule="evenodd" clip-rule="evenodd" d="M2.33333 2C2.24493 2 2.16014 2.03512 2.09763 2.09763C2.03512 2.16014 2 2.24493 2 2.33333V11.6667C2 11.7551 2.03512 11.8399 2.09763 11.9024C2.16014 11.9649 2.24493 12 2.33333 12H5C5.55228 12 6 12.4477 6 13C6 13.5523 5.55228 14 5 14H2.33333C1.71449 14 1.121 13.7542 0.683417 13.3166C0.245833 12.879 0 12.2855 0 11.6667V2.33333C0 1.71449 0.245833 1.121 0.683417 0.683417C1.121 0.245832 1.7145 0 2.33333 0H5C5.55228 0 6 0.447715 6 1C6 1.55228 5.55228 2 5 2H2.33333ZM8.95956 2.95956C9.35008 2.56904 9.98325 2.56904 10.3738 2.95956L13.7071 6.29289C14.0976 6.68342 14.0976 7.31658 13.7071 7.70711L10.3738 11.0404C9.98325 11.431 9.35008 11.431 8.95956 11.0404C8.56904 10.6499 8.56904 10.0168 8.95956 9.62623L10.5858 8H5C4.44772 8 4 7.55228 4 7C4 6.44771 4.44772 6 5 6H10.5858L8.95956 4.37377C8.56904 3.98325 8.56904 3.35008 8.95956 2.95956Z" fill="#7F8FA4"/>
</svg>
