<svg width="15" height="16" viewBox="0 0 15 16" fill="none" xmlns="http://www.w3.org/2000/svg">
<path fill-rule="evenodd" clip-rule="evenodd" d="M3.99996 2.13819C3.99996 1.17689 4.76029 0.334351 5.77481 0.334351H8.22511C9.23963 0.334351 9.99996 1.17689 9.99996 2.13819C9.99996 2.74141 9.72894 3.17571 9.39929 3.4713C9.86909 3.66376 10.3106 3.91104 10.716 4.2052L11.3147 3.60798L11.0809 3.37316C10.6913 2.98174 10.6928 2.34858 11.0842 1.95895C11.4756 1.56933 12.1088 1.57078 12.4984 1.9622L13.4369 2.90501L14.3754 3.84782C14.765 4.23924 14.7635 4.87241 14.3721 5.26203C13.9807 5.65166 13.3475 5.6502 12.9579 5.25878L12.7256 5.02544L12.13 5.61958C12.887 6.66311 13.3333 7.94661 13.3333 9.33435C13.3333 12.8322 10.4978 15.6677 6.99996 15.6677C3.50216 15.6677 0.666626 12.8322 0.666626 9.33435C0.666626 6.68696 2.29097 4.41896 4.59739 3.47262C4.26851 3.17514 3.99996 2.73981 3.99996 2.13819ZM2.66663 9.33435C2.66663 6.94112 4.60673 5.00102 6.99996 5.00102C9.39319 5.00102 11.3333 6.94112 11.3333 9.33435C11.3333 11.7276 9.39319 13.6677 6.99996 13.6677C4.60673 13.6677 2.66663 11.7276 2.66663 9.33435ZM6.99996 7.66768C7.92043 7.66768 8.66663 8.41388 8.66663 9.33435C8.66663 9.79002 8.48509 10.2013 8.1881 10.5032C7.80076 10.8968 7.80591 11.53 8.19959 11.9173C8.59327 12.3047 9.22642 12.2995 9.61376 11.9058C10.2639 11.2451 10.6666 10.3358 10.6666 9.33435C10.6666 7.30931 9.025 5.66768 6.99996 5.66768V7.66768Z" fill="white"/>
</svg>
