<svg width="14" height="14" viewBox="0 0 14 14" fill="none" xmlns="http://www.w3.org/2000/svg">
<path fill-rule="evenodd" clip-rule="evenodd" d="M5.33333 3.66667C5.33333 2.74619 6.07952 2 7 2C7.92047 2 8.66666 2.74619 8.66666 3.66667C8.66666 4.58714 7.92047 5.33333 7 5.33333C6.07952 5.33333 5.33333 4.58714 5.33333 3.66667ZM7 0C4.97495 0 3.33333 1.64162 3.33333 3.66667C3.33333 5.69171 4.97495 7.33333 7 7.33333C9.02504 7.33333 10.6667 5.69171 10.6667 3.66667C10.6667 1.64162 9.02504 0 7 0ZM5.31475 7.99935C3.92592 7.99935 2.65629 8.78402 2.03519 10.0262L0.772235 12.5521C0.525246 13.0461 0.72547 13.6468 1.21945 13.8938C1.71343 14.1408 2.3141 13.9405 2.56109 13.4466L3.82404 10.9207C4.10636 10.356 4.68347 9.99935 5.31475 9.99935H8.68524C9.31652 9.99935 9.89363 10.356 10.176 10.9207L11.4389 13.4466C11.6859 13.9405 12.2866 14.1408 12.7805 13.8938C13.2745 13.6468 13.4747 13.0461 13.2278 12.5521L11.9648 10.0262C11.3437 8.78402 10.0741 7.99935 8.68524 7.99935H5.31475Z" fill="#7F8FA4"/>
</svg>
