<svg width="78" height="78" viewBox="0 0 78 78" fill="none" xmlns="http://www.w3.org/2000/svg">
<path fill-rule="evenodd" clip-rule="evenodd" d="M38.9999 4.33008C19.854 4.33008 4.33325 19.8509 4.33325 38.9967C4.33325 58.1426 19.854 73.6634 38.9999 73.6634C58.1458 73.6634 73.6666 58.1426 73.6666 38.9967C73.6666 19.8509 58.1458 4.33008 38.9999 4.33008ZM0.333252 38.9967C0.333252 17.6417 17.6449 0.330078 38.9999 0.330078C60.3549 0.330078 77.6666 17.6417 77.6666 38.9967C77.6666 60.3518 60.3549 77.6634 38.9999 77.6634C17.6449 77.6634 0.333252 60.3518 0.333252 38.9967ZM38.9999 20.3333C40.1045 20.3333 40.9999 21.2288 40.9999 22.3333V42.3333C40.9999 43.4379 40.1045 44.3333 38.9999 44.3333C37.8954 44.3333 36.9999 43.4379 36.9999 42.3333V22.3333C36.9999 21.2288 37.8954 20.3333 38.9999 20.3333ZM38.9999 53.6667C37.8954 53.6667 36.9999 54.5621 36.9999 55.6667C36.9999 56.7712 37.8954 57.6667 38.9999 57.6667H39.0333C40.1378 57.6667 41.0333 56.7712 41.0333 55.6667C41.0333 54.5621 40.1378 53.6667 39.0333 53.6667H38.9999Z" fill="#FFB300"/>
</svg>
