<svg width="22" height="22" viewBox="0 0 22 22" fill="none" xmlns="http://www.w3.org/2000/svg">
<path fill-rule="evenodd" clip-rule="evenodd" d="M2 11C2 6.02944 6.02944 2 11 2C15.9706 2 20 6.02944 20 11C20 15.9706 15.9706 20 11 20C6.02944 20 2 15.9706 2 11ZM11 0C4.92487 0 0 4.92487 0 11C0 17.0751 4.92487 22 11 22C17.0751 22 22 17.0751 22 11C22 4.92487 17.0751 0 11 0ZM16.1887 7.07623C16.3085 6.71689 16.2149 6.32073 15.9471 6.05289C15.6793 5.78506 15.2831 5.69154 14.9238 5.81132L8.56377 7.93132C8.26517 8.03085 8.03085 8.26517 7.93132 8.56377L5.81132 14.9238C5.69154 15.2831 5.78506 15.6793 6.05289 15.9471C6.32073 16.2149 6.71689 16.3085 7.07623 16.1887L13.4362 14.0687C13.7348 13.9691 13.9691 13.7348 14.0687 13.4362L16.1887 7.07623ZM8.34114 13.6589L9.67057 9.67057L13.6589 8.34114L12.3294 12.3294L8.34114 13.6589Z" fill="#7F8FA4"/>
</svg>
