<svg width="22" height="18" viewBox="0 0 22 18" fill="none" xmlns="http://www.w3.org/2000/svg">
<path fill-rule="evenodd" clip-rule="evenodd" d="M2 2.99989C2.00006 2.45223 2.45232 2 3 2H19C19.5477 2 19.9999 2.45223 20 2.9999C19.8091 2.99972 19.6161 3.05411 19.4453 3.16795L11 8.79815L2.5547 3.16795C2.38394 3.05411 2.1909 2.99972 2 2.99989ZM2 5.20185V15C2 15.5477 2.45228 16 3 16H19C19.5477 16 20 15.5477 20 15V5.20185L11.5547 10.8321C11.2188 11.056 10.7812 11.056 10.4453 10.8321L2 5.20185ZM3 0C1.34772 0 0 1.34772 0 3V15C0 16.6523 1.34772 18 3 18H19C20.6523 18 22 16.6523 22 15V3C22 1.34772 20.6523 0 19 0H3Z" fill="#7F8FA4"/>
</svg>
