<svg width="28" height="29" viewBox="0 0 28 29" fill="none" xmlns="http://www.w3.org/2000/svg">
<path d="M4 10C5.1 10 6 10.9 6 12C6 13.1 5.1 14 4 14C2.9 14 2 13.1 2 12C2 10.9 2.9 10 4 10ZM4 8C1.8 8 0 9.8 0 12C0 14.2 1.8 16 4 16C6.2 16 8 14.2 8 12C8 9.8 6.2 8 4 8Z" fill="white"/>
<path d="M14 16C15.1 16 16 16.9 16 18C16 19.1 15.1 20 14 20C12.9 20 12 19.1 12 18C12 16.9 12.9 16 14 16ZM14 14C11.8 14 10 15.8 10 18C10 20.2 11.8 22 14 22C16.2 22 18 20.2 18 18C18 15.8 16.2 14 14 14Z" fill="white"/>
<path d="M24 8C25.1 8 26 8.9 26 10C26 11.1 25.1 12 24 12C22.9 12 22 11.1 22 10C22 8.9 22.9 8 24 8ZM24 6C21.8 6 20 7.8 20 10C20 12.2 21.8 14 24 14C26.2 14 28 12.2 28 10C28 7.8 26.2 6 24 6Z" fill="white"/>
<path d="M3 28V20C3 19.4 3.4 19 4 19C4.6 19 5 19.4 5 20V28C5 28.6 4.6 29 4 29C3.4 29 3 28.6 3 28Z" fill="white"/>
<path d="M13 11V1C13 0.4 13.4 0 14 0C14.6 0 15 0.4 15 1V11C15 11.6 14.6 12 14 12C13.4 12 13 11.6 13 11Z" fill="white"/>
<path d="M23 27V17C23 16.4 23.4 16 24 16C24.6 16 25 16.4 25 17V27C25 27.6 24.6 28 24 28C23.4 28 23 27.6 23 27Z" fill="white"/>
<path d="M23 3V1C23 0.4 23.4 0 24 0C24.6 0 25 0.4 25 1V3C25 3.6 24.6 4 24 4C23.4 4 23 3.6 23 3Z" fill="white"/>
<path d="M3 5V1C3 0.4 3.4 0 4 0C4.6 0 5 0.4 5 1V5C5 5.6 4.6 6 4 6C3.4 6 3 5.6 3 5Z" fill="white"/>
<path d="M13 27V25C13 24.4 13.4 24 14 24C14.6 24 15 24.4 15 25V27C15 27.6 14.6 28 14 28C13.4 28 13 27.6 13 27Z" fill="white"/>
</svg>
