<svg width="30" height="30" viewBox="0 0 30 30" fill="none" xmlns="http://www.w3.org/2000/svg">
<path fill-rule="evenodd" clip-rule="evenodd" d="M20.2428 3.41948C18.9668 2.89861 17.5371 2.66199 15.7433 2.6667C11.3184 2.67833 7.97927 4.77414 5.88117 8.1668C4.74905 9.99747 4.14896 12.1072 4.14813 14.2596L4.14813 14.2619C4.14344 16.0597 4.56349 17.8333 5.37406 19.438C5.49427 19.676 5.51446 19.9522 5.43014 20.2051L3.24779 26.7522L9.79484 24.5698C10.0478 24.4855 10.3239 24.5057 10.5619 24.6259C12.1765 25.4414 13.6479 25.8513 15.7409 25.8518C17.025 25.8521 18.0099 25.74 18.9268 25.479C19.8437 25.218 20.7405 24.7945 21.8331 24.1188C22.9254 23.4433 23.7043 22.8299 24.3472 22.1259C24.9902 21.4218 25.5307 20.5904 26.1056 19.4414C27.047 17.5601 27.3288 16.3629 27.3332 14.2572C27.337 12.463 27.1003 11.0331 26.5796 9.75699C26.0593 8.48182 25.2305 7.29919 23.9656 6.03433C22.7006 4.76935 21.518 3.94001 20.2428 3.41948ZM20.9987 1.56782C22.5807 2.21363 23.9792 3.2195 25.3798 4.62012C26.7806 6.02087 27.7859 7.41939 28.4314 9.0014C29.0766 10.5825 29.3374 12.2858 29.3332 14.2614C29.3282 16.6743 28.9749 18.1767 27.8942 20.3364C27.2667 21.5905 26.6295 22.5926 25.8241 23.4746C25.0185 24.3566 24.0782 25.0819 22.8851 25.8198C21.6923 26.5574 20.6234 27.0755 19.4743 27.4026C18.3251 27.7297 17.1436 27.8522 15.7404 27.8518C13.4785 27.8513 11.7793 27.4229 10.0388 26.5967L1.98288 29.282C1.62355 29.4018 1.22738 29.3082 0.959546 29.0404C0.691714 28.7726 0.598192 28.3764 0.71797 28.0171L3.40401 19.9589C2.57266 18.1754 2.14315 16.229 2.14813 14.2578C2.14931 11.7343 2.85292 9.26106 4.18017 7.11487C6.62153 3.16712 10.5845 0.680248 15.7381 0.666709C17.714 0.661519 19.4175 0.92236 20.9987 1.56782Z" fill="white"/>
</svg>
