<svg width="26" height="30" viewBox="0 0 26 30" fill="none" xmlns="http://www.w3.org/2000/svg">
<path fill-rule="evenodd" clip-rule="evenodd" d="M12.9998 0.666672C10.6129 0.666672 8.32368 1.61488 6.63585 3.30271C4.94803 4.99054 3.99981 7.27972 3.99981 9.66667C3.99981 14.186 3.03275 17.018 2.12192 18.6878C1.66512 19.5253 1.21704 20.0806 0.898861 20.4164C0.739511 20.5846 0.612064 20.6985 0.531504 20.7656C0.491211 20.7992 0.462615 20.8211 0.447592 20.8323L0.435547 20.8411C0.435803 20.8409 0.436446 20.8405 0.437482 20.8398L0.440584 20.8377L0.442669 20.8363L0.443846 20.8355C0.443944 20.8354 0.444043 20.8353 0.446285 20.8385L0.999814 22.6667H24.9998L25.5533 20.8385C25.5556 20.8353 25.5557 20.8354 25.5558 20.8355L25.557 20.8363L25.559 20.8377L25.5621 20.8398C25.5632 20.8405 25.5638 20.8409 25.5641 20.8411L25.552 20.8323C25.537 20.8211 25.5084 20.7992 25.4681 20.7656C25.3876 20.6985 25.2601 20.5846 25.1008 20.4164C24.7826 20.0806 24.3345 19.5253 23.8777 18.6878C22.9669 17.018 21.9998 14.186 21.9998 9.66667C21.9998 7.27972 21.0516 4.99054 19.3638 3.30271C17.6759 1.61488 15.3868 0.666672 12.9998 0.666672ZM22.7467 20.6667H3.25291C3.45755 20.3687 3.66828 20.0295 3.87771 19.6455C4.96688 17.6487 5.99981 14.4807 5.99981 9.66667C5.99981 7.81016 6.73731 6.02968 8.05007 4.71692C9.36282 3.40417 11.1433 2.66667 12.9998 2.66667C14.8563 2.66667 16.6368 3.40417 17.9496 4.71692C19.2623 6.02968 19.9998 7.81016 19.9998 9.66667C19.9998 14.4807 21.0327 17.6487 22.1219 19.6455C22.3314 20.0295 22.5421 20.3687 22.7467 20.6667ZM11.5581 26.4982C11.281 26.0205 10.6691 25.8579 10.1914 26.135C9.71365 26.4121 9.55103 27.024 9.82815 27.5018C10.1505 28.0574 10.6131 28.5186 11.1697 28.8392C11.7264 29.1599 12.3575 29.3286 12.9998 29.3286C13.6422 29.3286 14.2733 29.1599 14.8299 28.8392C15.3865 28.5186 15.8492 28.0574 16.1715 27.5018C16.4486 27.024 16.286 26.4121 15.8083 26.135C15.3305 25.8579 14.7186 26.0205 14.4415 26.4982C14.295 26.7508 14.0847 26.9604 13.8317 27.1062C13.5787 27.2519 13.2918 27.3286 12.9998 27.3286C12.7078 27.3286 12.421 27.2519 12.168 27.1062C11.9149 26.9604 11.7047 26.7508 11.5581 26.4982Z" fill="white"/>
</svg>
