<svg width="24" height="30" viewBox="0 0 24 30" fill="none" xmlns="http://www.w3.org/2000/svg">
<path fill-rule="evenodd" clip-rule="evenodd" d="M3.01679 3.35007C3.45438 2.91249 4.04787 2.66666 4.66671 2.66666H21.6667V20.7236C21.5624 20.6867 21.4503 20.6667 21.3334 20.6667H4.66671C3.83337 20.6667 3.02478 20.9067 2.33337 21.3485V4.99999C2.33337 4.38115 2.57921 3.78766 3.01679 3.35007ZM2.33337 25C2.33337 25.6188 2.57921 26.2123 3.01679 26.6499C3.45438 27.0875 4.04787 27.3333 4.66671 27.3333H20.391C20.3532 27.2269 20.3334 27.1138 20.3334 26.9987V22.9987C20.3334 22.8845 20.3529 22.7723 20.3901 22.6667H4.66671C4.04787 22.6667 3.45438 22.9125 3.01679 23.3501C2.57921 23.7877 2.33337 24.3812 2.33337 25ZM0.333374 25C0.333374 26.1493 0.78992 27.2515 1.60258 28.0641C2.41524 28.8768 3.51744 29.3333 4.66671 29.3333H22.6667C23.0711 29.3333 23.4357 29.0898 23.5905 28.7162C23.7453 28.3427 23.66 27.9126 23.3742 27.6266L22.3334 26.5848V23.4129L23.3738 22.3725C23.5613 22.1849 23.6667 21.9306 23.6667 21.6654V1.66666C23.6667 1.11437 23.219 0.666656 22.6667 0.666656H4.66671C3.51744 0.666656 2.41524 1.1232 1.60258 1.93586C0.78992 2.74852 0.333374 3.85072 0.333374 4.99999V25Z" fill="white"/>
</svg>
