<svg width="27" height="30" viewBox="0 0 27 30" fill="none" xmlns="http://www.w3.org/2000/svg">
<path fill-rule="evenodd" clip-rule="evenodd" d="M9.54974 2.66533C9.28045 2.66533 9.00004 2.90246 9.00004 3.27301C9.00004 3.51677 9.10526 3.73691 9.63191 3.98719C10.1373 4.22736 10.7758 4.36522 11.4481 4.51037L11.6587 4.55599C11.8755 4.60327 12.1063 4.60175 12.3303 4.55068C12.4338 4.5271 12.5364 4.50417 12.638 4.48147C13.2819 4.33764 13.8839 4.20316 14.3703 3.97401C14.9007 3.72411 15 3.50806 15 3.27301C15 2.90246 14.7196 2.66533 14.4503 2.66533H9.54974ZM7.00004 3.27301C7.00004 1.86776 8.10728 0.665329 9.54974 0.665329H14.4503C15.8928 0.665329 17 1.86776 17 3.27301C17 4.63233 16.0691 5.38451 15.2226 5.78329C14.8681 5.95029 14.4773 6.08073 14.097 6.18662C16.1362 6.55671 17.9907 7.45683 19.5126 8.73907L22.0429 6.2151L20.8707 5.03748C20.4811 4.64605 20.4825 4.01289 20.874 3.62327C21.2654 3.23364 21.8985 3.2351 22.2882 3.62652L24.1651 5.51213L26.0421 7.39775C26.4317 7.78917 26.4303 8.42234 26.0389 8.81196C25.6474 9.20159 25.0143 9.20013 24.6246 8.80871L23.4539 7.63256L20.9268 10.1533C22.6365 12.183 23.6667 14.8038 23.6667 17.6653C23.6667 24.1087 18.4434 29.332 12 29.332C5.55672 29.332 0.333374 24.1087 0.333374 17.6653C0.333374 11.9483 4.44549 7.19177 9.87332 6.19205C9.50145 6.08763 9.12083 5.95866 8.77348 5.79359C7.9241 5.38996 7.00004 4.63128 7.00004 3.27301ZM2.33337 17.6653C2.33337 12.3266 6.66129 7.99867 12 7.99867C17.3388 7.99867 21.6667 12.3266 21.6667 17.6653C21.6667 23.0041 17.3388 27.332 12 27.332C6.66129 27.332 2.33337 23.0041 2.33337 17.6653ZM12 13.332C14.3933 13.332 16.3334 15.2721 16.3334 17.6653C16.3334 18.8495 15.8597 19.9211 15.0892 20.7043C14.7018 21.098 14.707 21.7311 15.1006 22.1184C15.4943 22.5058 16.1275 22.5006 16.5148 22.1069C17.6385 20.9649 18.3334 19.3953 18.3334 17.6653C18.3334 14.1675 15.4978 11.332 12 11.332V13.332Z" fill="white"/>
</svg>
