<svg width="16" height="4" fill="none" xmlns="http://www.w3.org/2000/svg"><path fill-rule="evenodd" clip-rule="evenodd" d="M2.333 2.002a.167.167 0 1 1-.333 0 .167.167 0 0 1 .333 0ZM2.167.169a1.833 1.833 0 1 0 0 3.666 1.833 1.833 0 0 0 0-3.666Zm5.833 2a.167.167 0 1 0 0-.334.167.167 0 0 0 0 .334Zm-1.833-.167a1.833 1.833 0 1 1 3.666 0 1.833 1.833 0 0 1-3.666 0Zm7.666.167a.167.167 0 1 0 0-.334.167.167 0 0 0 0 .334ZM12 2.002a1.833 1.833 0 1 1 3.667 0 1.833 1.833 0 0 1-3.667 0Z" fill="#516173"/></svg>