<svg width="14" height="16" fill="none" xmlns="http://www.w3.org/2000/svg"><path fill-rule="evenodd" clip-rule="evenodd" d="M5.431 2.431a.333.333 0 0 1 .236-.098h2.666a.333.333 0 0 1 .334.334V3H5.333v-.333a.33.33 0 0 1 .098-.236ZM3.333 3v-.333A2.333 2.333 0 0 1 5.667.333h2.666a2.333 2.333 0 0 1 2.334 2.334V3H13a1 1 0 1 1 0 2h-.333v8.333a2.333 2.333 0 0 1-2.334 2.334H3.667a2.334 2.334 0 0 1-2.334-2.334V5H1a1 1 0 0 1 0-2h2.333Zm0 2v8.333a.333.333 0 0 0 .334.334h6.666a.333.333 0 0 0 .334-.334V5H3.333Z" fill="#7F8FA4"/></svg>