<svg width="16" height="4" viewBox="0 0 16 4" fill="none" xmlns="http://www.w3.org/2000/svg">
<path fill-rule="evenodd" clip-rule="evenodd" d="M2.33331 2.002C2.33331 2.09405 2.25869 2.16867 2.16665 2.16867C2.0746 2.16867 1.99998 2.09405 1.99998 2.002C1.99998 1.90996 2.0746 1.83534 2.16665 1.83534C2.25869 1.83534 2.33331 1.90996 2.33331 2.002ZM2.16665 0.168671C1.15412 0.168671 0.333313 0.989481 0.333313 2.002C0.333313 3.01453 1.15412 3.83534 2.16665 3.83534C3.17917 3.83534 3.99998 3.01453 3.99998 2.002C3.99998 0.989481 3.17917 0.168671 2.16665 0.168671ZM7.99998 2.16867C8.09203 2.16867 8.16665 2.09405 8.16665 2.002C8.16665 1.90996 8.09203 1.83534 7.99998 1.83534C7.90793 1.83534 7.83331 1.90996 7.83331 2.002C7.83331 2.09405 7.90793 2.16867 7.99998 2.16867ZM6.16665 2.002C6.16665 0.989482 6.98746 0.168671 7.99998 0.168671C9.0125 0.168671 9.83331 0.989482 9.83331 2.002C9.83331 3.01453 9.0125 3.83534 7.99998 3.83534C6.98746 3.83534 6.16665 3.01453 6.16665 2.002ZM13.8333 2.16867C13.9254 2.16867 14 2.09405 14 2.002C14 1.90996 13.9254 1.83534 13.8333 1.83534C13.7413 1.83534 13.6666 1.90996 13.6666 2.002C13.6666 2.09405 13.7413 2.16867 13.8333 2.16867ZM12 2.002C12 0.989482 12.8208 0.168671 13.8333 0.168671C14.8458 0.168671 15.6666 0.989482 15.6666 2.002C15.6666 3.01453 14.8458 3.83534 13.8333 3.83534C12.8208 3.83534 12 3.01453 12 2.002Z" fill="#516173"/>
</svg>
