<svg width="12" height="10" viewBox="0 0 12 10" fill="none" xmlns="http://www.w3.org/2000/svg">
<path fill-rule="evenodd" clip-rule="evenodd" d="M1.5 2.00196C1.50003 1.72813 1.72616 1.50201 2 1.50201H10C10.2738 1.50201 10.5 1.72813 10.5 2.00196C10.4045 2.00187 10.308 2.02907 10.2226 2.08599L6 4.90109L1.77735 2.08599C1.69197 2.02907 1.59545 2.00187 1.5 2.00196ZM1.5 3.10294V8.00201C1.5 8.27587 1.72614 8.50201 2 8.50201H10C10.2739 8.50201 10.5 8.27587 10.5 8.00201V3.10294L6.27735 5.91804C6.1094 6.03001 5.8906 6.03001 5.72265 5.91804L1.5 3.10294ZM2 0.502014C1.17386 0.502014 0.5 1.17587 0.5 2.00201V8.00201C0.5 8.82816 1.17386 9.50201 2 9.50201H10C10.8261 9.50201 11.5 8.82816 11.5 8.00201V2.00201C11.5 1.17587 10.8261 0.502014 10 0.502014H2Z" fill="#7F8FA4"/>
</svg>
