<svg width="18" height="18" viewBox="0 0 18 18" fill="none" xmlns="http://www.w3.org/2000/svg">
<path fill-rule="evenodd" clip-rule="evenodd" d="M11.5 0.502014C10.9477 0.502014 10.5 0.949729 10.5 1.50201C10.5 2.0543 10.9477 2.50201 11.5 2.50201H14.0858L9.95956 6.62824C9.56904 7.01876 9.56904 7.65193 9.95956 8.04245C10.3501 8.43298 10.9832 8.43298 11.3738 8.04245L15.5 3.91623V6.50201C15.5 7.0543 15.9477 7.50201 16.5 7.50201C17.0523 7.50201 17.5 7.0543 17.5 6.50201V1.50201C17.5 0.949729 17.0523 0.502014 16.5 0.502014H11.5ZM8.04044 11.3758C8.43096 10.9853 8.43096 10.3521 8.04044 9.96157C7.64992 9.57105 7.01675 9.57105 6.62623 9.96157L2.5 14.0878V11.502C2.5 10.9497 2.05228 10.502 1.5 10.502C0.947715 10.502 0.5 10.9497 0.5 11.502V16.502C0.5 17.0543 0.947715 17.502 1.5 17.502H6.5C7.05228 17.502 7.5 17.0543 7.5 16.502C7.5 15.9497 7.05228 15.502 6.5 15.502H3.91421L8.04044 11.3758Z" fill="#516173"/>
</svg>
