<svg width="18" height="18" viewBox="0 0 18 18" fill="none" xmlns="http://www.w3.org/2000/svg">
<path fill-rule="evenodd" clip-rule="evenodd" d="M2.5 8.16867C2.5 5.03905 5.03705 2.502 8.16667 2.502C11.2963 2.502 13.8333 5.03905 13.8333 8.16867C13.8333 9.6911 13.233 11.0733 12.2561 12.0914C12.2255 12.1156 12.1961 12.1417 12.1679 12.1699C12.1397 12.1981 12.1136 12.2275 12.0894 12.258C11.0713 13.235 9.6891 13.8353 8.16667 13.8353C5.03705 13.8353 2.5 11.2983 2.5 8.16867ZM12.8347 14.2509C11.5419 15.2446 9.92326 15.8353 8.16667 15.8353C3.93248 15.8353 0.5 12.4028 0.5 8.16867C0.5 3.93448 3.93248 0.501999 8.16667 0.501999C12.4008 0.501999 15.8333 3.93448 15.8333 8.16867C15.8333 9.92526 15.2426 11.5439 14.2489 12.8367L17.2071 15.7949C17.5976 16.1854 17.5976 16.8186 17.2071 17.2091C16.8166 17.5996 16.1834 17.5996 15.7929 17.2091L12.8347 14.2509Z" fill="#7F8FA4"/>
</svg>
