<svg width="26" height="30" fill="none" xmlns="http://www.w3.org/2000/svg"><path fill-rule="evenodd" clip-rule="evenodd" d="M3.667.667A3.667 3.667 0 0 0 0 4.333v21.334a3.666 3.666 0 0 0 3.667 3.666H17a1 1 0 1 0 0-2H3.667A1.667 1.667 0 0 1 2 25.667V4.333a1.667 1.667 0 0 1 1.667-1.666h16c.92 0 1.666.746 1.666 1.666v.471a3.667 3.667 0 0 0-2.666 3.528v14.222a1 1 0 0 0 .142.515l2.667 4.444a1 1 0 0 0 1.715 0l2.667-4.444a1 1 0 0 0 .142-.515V8.332a3.667 3.667 0 0 0-2.667-3.528v-.47A3.667 3.667 0 0 0 19.667.666h-16Zm18.626 5.999a1.004 1.004 0 0 0 .08 0A1.666 1.666 0 0 1 24 8.332v13.945l-1.667 2.778-1.666-2.778V8.332a1.667 1.667 0 0 1 1.626-1.666Zm-16.96 11a1 1 0 0 1 1-1h8a1 1 0 1 1 0 2h-8a1 1 0 0 1-1-1Zm1-6.334a1 1 0 1 0 0 2H9a1 1 0 1 0 0-2H6.333Zm-1-4.333a1 1 0 0 1 1-1h8a1 1 0 1 1 0 2h-8a1 1 0 0 1-1-1Zm1 15.001a1 1 0 1 0 0 2h5.334a1 1 0 0 0 0-2H6.333Z" fill="#fff"/></svg>