<svg width="30" height="30" fill="none" xmlns="http://www.w3.org/2000/svg"><path fill-rule="evenodd" clip-rule="evenodd" d="M20.243 3.42c-1.276-.521-2.706-.758-4.5-.753-4.425.011-7.764 2.107-9.862 5.5a11.593 11.593 0 0 0-1.733 6.093v.002a11.414 11.414 0 0 0 1.226 5.176 1 1 0 0 1 .056.767l-2.182 6.547 6.547-2.182a1 1 0 0 1 .767.056c1.615.815 3.086 1.225 5.179 1.226 1.284 0 2.269-.112 3.186-.373.917-.261 1.814-.684 2.906-1.36s1.871-1.29 2.514-1.993c.643-.704 1.184-1.536 1.759-2.685.941-1.88 1.223-3.078 1.227-5.184.004-1.794-.233-3.224-.753-4.5-.52-1.275-1.35-2.458-2.614-3.723C22.7 4.77 21.518 3.94 20.243 3.42Zm.756-1.852c1.582.646 2.98 1.651 4.38 3.052 1.402 1.4 2.407 2.8 3.052 4.381.646 1.582.906 3.285.902 5.26-.005 2.413-.358 3.916-1.439 6.075-.627 1.255-1.264 2.257-2.07 3.139-.806.882-1.746 1.607-2.939 2.345-1.193.737-2.262 1.256-3.41 1.583-1.15.327-2.331.45-3.735.449-2.261 0-3.96-.43-5.701-1.255l-8.056 2.685a1 1 0 0 1-1.265-1.265l2.686-8.058a13.414 13.414 0 0 1-1.256-5.701A13.592 13.592 0 0 1 4.18 7.115C6.622 3.167 10.585.68 15.738.667c1.976-.005 3.68.255 5.26.9Z" fill="#fff"/></svg>