<svg width="24" height="30" fill="none" xmlns="http://www.w3.org/2000/svg"><path fill-rule="evenodd" clip-rule="evenodd" d="M3.017 3.35a2.333 2.333 0 0 1 1.65-.683h17v18.057a.997.997 0 0 0-.334-.057H4.667c-.834 0-1.642.24-2.334.681V5c0-.619.246-1.212.684-1.65ZM2.333 25a2.333 2.333 0 0 0 2.334 2.333H20.39a1 1 0 0 1-.058-.334v-4a1 1 0 0 1 .057-.332H4.667A2.333 2.333 0 0 0 2.333 25Zm-2 0a4.333 4.333 0 0 0 4.334 4.333h18a1 1 0 0 0 .707-1.706l-1.04-1.042v-3.172l1.04-1.04a1 1 0 0 0 .293-.708V1.667a1 1 0 0 0-1-1h-18A4.333 4.333 0 0 0 .333 5v20Z" fill="#fff"/></svg>