<svg width="27" height="30" fill="none" xmlns="http://www.w3.org/2000/svg"><path fill-rule="evenodd" clip-rule="evenodd" d="M9.55 2.665c-.27 0-.55.237-.55.608 0 .244.105.464.632.714.505.24 1.144.378 1.816.523l.21.046c.218.047.448.046.672-.005l.308-.07c.644-.143 1.246-.278 1.732-.507.53-.25.63-.466.63-.701 0-.37-.28-.608-.55-.608h-4.9ZM7 3.273C7 1.868 8.107.665 9.55.665h4.9C15.893.665 17 1.868 17 3.273c0 1.36-.93 2.112-1.777 2.51a7.208 7.208 0 0 1-1.126.404 11.62 11.62 0 0 1 5.416 2.552l2.53-2.524-1.172-1.178a1 1 0 1 1 1.417-1.41l1.877 1.885 1.877 1.886a1 1 0 1 1-1.417 1.41l-1.171-1.175-2.527 2.52a11.62 11.62 0 0 1 2.74 7.512c0 6.444-5.224 11.667-11.667 11.667S.333 24.109.333 17.665c0-5.717 4.112-10.473 9.54-11.473a6.99 6.99 0 0 1-1.1-.398C7.924 5.39 7 4.63 7 3.273ZM2.333 17.665C2.333 12.327 6.661 8 12 8a9.667 9.667 0 1 1 0 19.333 9.667 9.667 0 0 1-9.667-9.667ZM12 13.332a4.333 4.333 0 0 1 3.09 7.372 1 1 0 1 0 1.425 1.403A6.333 6.333 0 0 0 12 11.332v2Z" fill="#fff"/></svg>